<svg id="visual" viewBox="0 0 960 360" width="960" height="360" xmlns="http://www.w3.org/2000/svg" xmlns:xlink="http://www.w3.org/1999/xlink" version="1.1"><rect x="0" y="0" width="960" height="360" fill="#242424"></rect><path d="M0 214L22.8 216.5C45.7 219 91.3 224 137 224.3C182.7 224.7 228.3 220.3 274 225C319.7 229.7 365.3 243.3 411.2 243C457 242.7 503 228.3 548.8 224.5C594.7 220.7 640.3 227.3 686 234.2C731.7 241 777.3 248 823 250.5C868.7 253 914.3 251 937.2 250L960 249L960 361L937.2 361C914.3 361 868.7 361 823 361C777.3 361 731.7 361 686 361C640.3 361 594.7 361 548.8 361C503 361 457 361 411.2 361C365.3 361 319.7 361 274 361C228.3 361 182.7 361 137 361C91.3 361 45.7 361 22.8 361L0 361Z" fill="#3cf5c6"></path><path d="M0 234L22.8 234.5C45.7 235 91.3 236 137 239.5C182.7 243 228.3 249 274 250.7C319.7 252.3 365.3 249.7 411.2 251.3C457 253 503 259 548.8 257.2C594.7 255.3 640.3 245.7 686 242.7C731.7 239.7 777.3 243.3 823 246.2C868.7 249 914.3 251 937.2 252L960 253L960 361L937.2 361C914.3 361 868.7 361 823 361C777.3 361 731.7 361 686 361C640.3 361 594.7 361 548.8 361C503 361 457 361 411.2 361C365.3 361 319.7 361 274 361C228.3 361 182.7 361 137 361C91.3 361 45.7 361 22.8 361L0 361Z" fill="#3ce0c3"></path><path d="M0 288L22.8 287.2C45.7 286.3 91.3 284.7 137 282C182.7 279.3 228.3 275.7 274 273.3C319.7 271 365.3 270 411.2 273.2C457 276.3 503 283.7 548.8 282.5C594.7 281.3 640.3 271.7 686 270.5C731.7 269.3 777.3 276.7 823 277.3C868.7 278 914.3 272 937.2 269L960 266L960 361L937.2 361C914.3 361 868.7 361 823 361C777.3 361 731.7 361 686 361C640.3 361 594.7 361 548.8 361C503 361 457 361 411.2 361C365.3 361 319.7 361 274 361C228.3 361 182.7 361 137 361C91.3 361 45.7 361 22.8 361L0 361Z" fill="#46cabc"></path><path d="M0 314L22.8 312.5C45.7 311 91.3 308 137 303.5C182.7 299 228.3 293 274 291.5C319.7 290 365.3 293 411.2 297.7C457 302.3 503 308.7 548.8 307.3C594.7 306 640.3 297 686 294.5C731.7 292 777.3 296 823 296.2C868.7 296.3 914.3 292.7 937.2 290.8L960 289L960 361L937.2 361C914.3 361 868.7 361 823 361C777.3 361 731.7 361 686 361C640.3 361 594.7 361 548.8 361C503 361 457 361 411.2 361C365.3 361 319.7 361 274 361C228.3 361 182.7 361 137 361C91.3 361 45.7 361 22.8 361L0 361Z" fill="#53b4b0"></path><path d="M0 342L22.8 338.5C45.7 335 91.3 328 137 328C182.7 328 228.3 335 274 334.7C319.7 334.3 365.3 326.7 411.2 324C457 321.3 503 323.7 548.8 324.8C594.7 326 640.3 326 686 325.5C731.7 325 777.3 324 823 326.5C868.7 329 914.3 335 937.2 338L960 341L960 361L937.2 361C914.3 361 868.7 361 823 361C777.3 361 731.7 361 686 361C640.3 361 594.7 361 548.8 361C503 361 457 361 411.2 361C365.3 361 319.7 361 274 361C228.3 361 182.7 361 137 361C91.3 361 45.7 361 22.8 361L0 361Z" fill="#5f9ea0"></path></svg>