<svg id="visual" viewBox="0 0 960 300" width="960" height="300" xmlns="http://www.w3.org/2000/svg" xmlns:xlink="http://www.w3.org/1999/xlink" version="1.1"><path d="M0 126L22.8 120.2C45.7 114.3 91.3 102.7 137 100.3C182.7 98 228.3 105 274 99.3C319.7 93.7 365.3 75.3 411.2 80.2C457 85 503 113 548.8 123C594.7 133 640.3 125 686 120.2C731.7 115.3 777.3 113.7 823 103.2C868.7 92.7 914.3 73.3 937.2 63.7L960 54L960 301L937.2 301C914.3 301 868.7 301 823 301C777.3 301 731.7 301 686 301C640.3 301 594.7 301 548.8 301C503 301 457 301 411.2 301C365.3 301 319.7 301 274 301C228.3 301 182.7 301 137 301C91.3 301 45.7 301 22.8 301L0 301Z" fill="#69fac8"></path><path d="M0 159L22.8 155.7C45.7 152.3 91.3 145.7 137 142C182.7 138.3 228.3 137.7 274 134C319.7 130.3 365.3 123.7 411.2 125.3C457 127 503 137 548.8 142.8C594.7 148.7 640.3 150.3 686 147.7C731.7 145 777.3 138 823 129.2C868.7 120.3 914.3 109.7 937.2 104.3L960 99L960 301L937.2 301C914.3 301 868.7 301 823 301C777.3 301 731.7 301 686 301C640.3 301 594.7 301 548.8 301C503 301 457 301 411.2 301C365.3 301 319.7 301 274 301C228.3 301 182.7 301 137 301C91.3 301 45.7 301 22.8 301L0 301Z" fill="#5ad69e"></path><path d="M0 143L22.8 149.2C45.7 155.3 91.3 167.7 137 173.2C182.7 178.7 228.3 177.3 274 170.5C319.7 163.7 365.3 151.3 411.2 156.2C457 161 503 183 548.8 183.5C594.7 184 640.3 163 686 162C731.7 161 777.3 180 823 183.8C868.7 187.7 914.3 176.3 937.2 170.7L960 165L960 301L937.2 301C914.3 301 868.7 301 823 301C777.3 301 731.7 301 686 301C640.3 301 594.7 301 548.8 301C503 301 457 301 411.2 301C365.3 301 319.7 301 274 301C228.3 301 182.7 301 137 301C91.3 301 45.7 301 22.8 301L0 301Z" fill="#4cb376"></path><path d="M0 202L22.8 205.7C45.7 209.3 91.3 216.7 137 219.5C182.7 222.3 228.3 220.7 274 213.8C319.7 207 365.3 195 411.2 190.5C457 186 503 189 548.8 198.7C594.7 208.3 640.3 224.7 686 232C731.7 239.3 777.3 237.7 823 231.7C868.7 225.7 914.3 215.3 937.2 210.2L960 205L960 301L937.2 301C914.3 301 868.7 301 823 301C777.3 301 731.7 301 686 301C640.3 301 594.7 301 548.8 301C503 301 457 301 411.2 301C365.3 301 319.7 301 274 301C228.3 301 182.7 301 137 301C91.3 301 45.7 301 22.8 301L0 301Z" fill="#3d9151"></path><path d="M0 262L22.8 258.2C45.7 254.3 91.3 246.7 137 243C182.7 239.3 228.3 239.7 274 240.3C319.7 241 365.3 242 411.2 242.3C457 242.7 503 242.3 548.8 239.5C594.7 236.7 640.3 231.3 686 230.8C731.7 230.3 777.3 234.7 823 237.8C868.7 241 914.3 243 937.2 244L960 245L960 301L937.2 301C914.3 301 868.7 301 823 301C777.3 301 731.7 301 686 301C640.3 301 594.7 301 548.8 301C503 301 457 301 411.2 301C365.3 301 319.7 301 274 301C228.3 301 182.7 301 137 301C91.3 301 45.7 301 22.8 301L0 301Z" fill="#2e702e"></path></svg>